HIERARCHY
ROOT Hips
{
  OFFSET 5.72205e-005 65.662 3.42586
  CHANNELS 6 Xposition Yposition Zposition Zrotation Xrotation Yrotation
  JOINT Chest
  {
    OFFSET 0 8.7983 -4.7612
    CHANNELS 3 Zrotation Xrotation Yrotation
    JOINT Chest2
    {
      OFFSET 0 8.0291 0.4195
      CHANNELS 3 Zrotation Xrotation Yrotation
      JOINT Chest3
      {
        OFFSET 0 9.9351 -2.2114
        CHANNELS 3 Zrotation Xrotation Yrotation
        JOINT Neck
        {
          OFFSET 0 22.3885 -0.4656
          CHANNELS 3 Zrotation Xrotation Yrotation
          JOINT Head
          {
            OFFSET -0.0001 12.643 3.4389
            CHANNELS 3 Zrotation Xrotation Yrotation
            End Site
            {
              OFFSET 0.0001 17.6655 0.5274
            }
          }
        }
        JOINT LeftCollar
        {
          OFFSET 2.2603 21.606 7.4023
          CHANNELS 3 Zrotation Xrotation Yrotation
          JOINT LeftShoulder
          {
            OFFSET 13.5163 -1.1332 -5.0146
            CHANNELS 3 Zrotation Xrotation Yrotation
            JOINT LeftElbow
            {
              OFFSET -0.0995 -28.05 -0.2431
              CHANNELS 3 Zrotation Xrotation Yrotation
              JOINT LeftWrist
              {
                OFFSET 0.0679 -23.3996 -0.1402
                CHANNELS 3 Zrotation Xrotation Yrotation
                JOINT LeftFinger1
                {
                  OFFSET 0.7932 -9.069 2.5189
                  CHANNELS 3 Zrotation Xrotation Yrotation
                  JOINT LeftFinger11
                  {
                    OFFSET -0.8272 -3.3923 0.5977
                    CHANNELS 3 Zrotation Xrotation Yrotation
                    JOINT LeftFinger12
                    {
                      OFFSET -0.5649 -2.3158 0.4082
                      CHANNELS 3 Zrotation Xrotation Yrotation
                      End Site
                      {
                        OFFSET -0.4919 -1.6479 0.2673
                      }
                    }
                  }
                }
                JOINT LeftFinger2
                {
                  OFFSET 0.9159 -9.2044 0.2193
                  CHANNELS 3 Zrotation Xrotation Yrotation
                  JOINT LeftFinger21
                  {
                    OFFSET 0.0117 -4.1944 -0.0248
                    CHANNELS 3 Zrotation Xrotation Yrotation
                    JOINT LeftFinger22
                    {
                      OFFSET 0.0071 -2.3249 -0.0142
                      CHANNELS 3 Zrotation Xrotation Yrotation
                      End Site
                      {
                        OFFSET -0.1475 -2.0882 0.0028
                      }
                    }
                  }
                }
                JOINT LeftFinger3
                {
                  OFFSET 0.6113 -8.7231 -2.0637
                  CHANNELS 3 Zrotation Xrotation Yrotation
                  JOINT LeftFinger31
                  {
                    OFFSET -0.1927 -3.8059 -0.2383
                    CHANNELS 3 Zrotation Xrotation Yrotation
                    JOINT LeftFinger32
                    {
                      OFFSET -0.1091 -2.1688 -0.1362
                      CHANNELS 3 Zrotation Xrotation Yrotation
                      End Site
                      {
                        OFFSET -0.2358 -1.9176 -0.0906
                      }
                    }
                  }
                }
                JOINT LeftFinger4
                {
                  OFFSET -0.6151 -8.0947 -3.5641
                  CHANNELS 3 Zrotation Xrotation Yrotation
                  JOINT LeftFinger41
                  {
                    OFFSET -0.4882 -2.341 -0.6462
                    CHANNELS 3 Zrotation Xrotation Yrotation
                    JOINT LeftFinger42
                    {
                      OFFSET -0.3575 -1.7167 -0.4742
                      CHANNELS 3 Zrotation Xrotation Yrotation
                      End Site
                      {
                        OFFSET -0.4187 -1.5237 -0.3496
                      }
                    }
                  }
                }
                JOINT LeftFinger0
                {
                  OFFSET -1.42 -1.8761 1.4223
                  CHANNELS 3 Zrotation Xrotation Yrotation
                  JOINT LeftFinger01
                  {
                    OFFSET -1.1471 -3.4929 2.6334
                    CHANNELS 3 Zrotation Xrotation Yrotation
                    JOINT LeftFinger02
                    {
                      OFFSET -0.823 -2.3 1.6571
                      CHANNELS 3 Zrotation Xrotation Yrotation
                      End Site
                      {
                        OFFSET -0.5822 -1.6914 1.1582
                      }
                    }
                  }
                }
              }
            }
          }
        }
        JOINT RightCollar
        {
          OFFSET -2.2603 21.606 7.4023
          CHANNELS 3 Zrotation Xrotation Yrotation
          JOINT RightShoulder
          {
            OFFSET -13.5187 -1.1334 -5.0155
            CHANNELS 3 Zrotation Xrotation Yrotation
            JOINT RightElbow
            {
              OFFSET 0.0994 -28.0499 -0.2431
              CHANNELS 3 Zrotation Xrotation Yrotation
              JOINT RightWrist
              {
                OFFSET -0.0679 -23.3996 -0.1402
                CHANNELS 3 Zrotation Xrotation Yrotation
                JOINT RightFinger1
                {
                  OFFSET -0.7932 -9.0691 2.5189
                  CHANNELS 3 Zrotation Xrotation Yrotation
                  JOINT RightFinger11
                  {
                    OFFSET 0.8272 -3.3923 0.5977
                    CHANNELS 3 Zrotation Xrotation Yrotation
                    JOINT RightFinger12
                    {
                      OFFSET 0.565 -2.3158 0.4082
                      CHANNELS 3 Zrotation Xrotation Yrotation
                      End Site
                      {
                        OFFSET 0.4919 -1.6479 0.2673
                      }
                    }
                  }
                }
                JOINT RightFinger2
                {
                  OFFSET -0.916 -9.2044 0.2193
                  CHANNELS 3 Zrotation Xrotation Yrotation
                  JOINT RightFinger21
                  {
                    OFFSET -0.0117 -4.1944 -0.0248
                    CHANNELS 3 Zrotation Xrotation Yrotation
                    JOINT RightFinger22
                    {
                      OFFSET -0.0071 -2.3249 -0.0142
                      CHANNELS 3 Zrotation Xrotation Yrotation
                      End Site
                      {
                        OFFSET 0.1475 -2.0882 0.0028
                      }
                    }
                  }
                }
                JOINT RightFinger3
                {
                  OFFSET -0.6113 -8.7231 -2.0637
                  CHANNELS 3 Zrotation Xrotation Yrotation
                  JOINT RightFinger31
                  {
                    OFFSET 0.1927 -3.8059 -0.2383
                    CHANNELS 3 Zrotation Xrotation Yrotation
                    JOINT RightFinger32
                    {
                      OFFSET 0.1091 -2.1688 -0.1362
                      CHANNELS 3 Zrotation Xrotation Yrotation
                      End Site
                      {
                        OFFSET 0.2358 -1.9176 -0.0906
                      }
                    }
                  }
                }
                JOINT RightFinger4
                {
                  OFFSET 0.6151 -8.0947 -3.564
                  CHANNELS 3 Zrotation Xrotation Yrotation
                  JOINT RightFinger41
                  {
                    OFFSET 0.4882 -2.341 -0.6462
                    CHANNELS 3 Zrotation Xrotation Yrotation
                    JOINT RightFinger42
                    {
                      OFFSET 0.3574 -1.7166 -0.4742
                      CHANNELS 3 Zrotation Xrotation Yrotation
                      End Site
                      {
                        OFFSET 0.4187 -1.5237 -0.3496
                      }
                    }
                  }
                }
                JOINT RightFinger0
                {
                  OFFSET 1.4199 -1.8761 1.4221
                  CHANNELS 3 Zrotation Xrotation Yrotation
                  JOINT RightFinger01
                  {
                    OFFSET 1.1472 -3.4929 2.6336
                    CHANNELS 3 Zrotation Xrotation Yrotation
                    JOINT RightFinger02
                    {
                      OFFSET 0.8229 -2.3 1.6571
                      CHANNELS 3 Zrotation Xrotation Yrotation
                      End Site
                      {
                        OFFSET 0.5822 -1.6914 1.1582
                      }
                    }
                  }
                }
              }
            }
          }
        }
      }
    }
  }
  JOINT RightHip
  {
    OFFSET -9.412 3.9771 -0.7758
    CHANNELS 3 Zrotation Xrotation Yrotation
    JOINT RightKnee
    {
      OFFSET -0.7531 -40.938 0
      CHANNELS 3 Zrotation Xrotation Yrotation
      JOINT RightAnkle
      {
        OFFSET 0 -40.1986 0
        CHANNELS 3 Zrotation Xrotation Yrotation
        JOINT RightToe
        {
          OFFSET 0 -4.4182 9.239
          CHANNELS 3 Zrotation Xrotation Yrotation
          End Site
          {
            OFFSET 0 0 6.1981
          }
        }
      }
    }
  }
  JOINT LeftHip
  {
    OFFSET 9.4119 3.9773 -0.7758
    CHANNELS 3 Zrotation Xrotation Yrotation
    JOINT LeftKnee
    {
      OFFSET 0.7532 -40.9383 0
      CHANNELS 3 Zrotation Xrotation Yrotation
      JOINT LeftAnkle
      {
        OFFSET 0 -40.1986 0
        CHANNELS 3 Zrotation Xrotation Yrotation
        JOINT LeftToe
        {
          OFFSET 0 -4.4182 9.239
          CHANNELS 3 Zrotation Xrotation Yrotation
          End Site
          {
            OFFSET 0 0 6.1981
          }
        }
      }
    }
  }
}
MOTION
Frames:	4
Frame Time:	0.0333333
5.72205e-005 65.662 3.42586 0 0 -0 0 0 -0 0 0 -0 0 0 -0 0 0 -0 0 0 -0 0 0 -12.5014 88.1196 14.2451 10.6914 -0.00160068 -0.00239207 0.000740045 -8.4365e-005 7.00714e-005 -9.52055e-007 9.93923e-017 -1.98785e-016 -1.59028e-015 9.93923e-017 -5.96354e-016 -1.59028e-015 -9.93923e-017 -5.96354e-016 -1.59028e-015 9.93923e-017 -1.98785e-016 -1.59028e-015 -0.0128176 0.00232552 8.52707e-005 9.93923e-017 5.96354e-016 -0 9.93923e-017 -1.98785e-016 -1.59028e-015 -0.0160551 0.00299681 0.000857156 -2.48481e-016 0 3.18055e-015 9.93923e-017 -1.98785e-016 -1.59028e-015 -0.0125865 0.0031206 0.00282719 0 1.98785e-016 -0 9.93923e-017 -1.98785e-016 -1.59028e-015 9.93923e-017 -5.96354e-016 -1.59028e-015 -9.93923e-017 -5.96354e-016 -1.59028e-015 -0.865644 0.16582 7.03859 -88.0329 10.2057 -10.5567 0.0015593 -0.00248883 -0.000788628 7.87605e-005 4.10553e-005 1.24965e-005 -3.97569e-016 -7.95139e-016 3.18055e-015 -1.98785e-016 -3.97569e-016 3.18055e-015 -1.98785e-016 0 3.18055e-015 -3.97569e-016 -7.95139e-016 3.18055e-015 0.0129473 0.00231697 -8.70038e-005 9.93923e-017 -7.95139e-016 1.59028e-015 -3.97569e-016 -7.95139e-016 3.18055e-015 0.0163314 0.00303369 -0.000872333 3.97569e-016 7.95139e-016 -3.18055e-015 -3.97569e-016 -7.95139e-016 3.18055e-015 0.0145763 0.00367772 -0.00326275 9.93923e-017 -3.97569e-016 -0 -3.97569e-016 -7.95139e-016 3.18055e-015 -1.98785e-016 -3.97569e-016 3.18055e-015 -1.98785e-016 0 3.18055e-015 3.42482 1.32465 -0.0626183 0.000117508 0.717283 0.000978199 -3.4257 -2.04197 -0.0604716 6.47761e-025 0 -0 -3.42483 1.34017 0.0627307 -0.000193936 0.682302 -0.0013703 3.42574 -2.02253 0.0595886 -8.45714e-024 0 -7.40531e-025 
56.3248 -0.875877 -9.2598 -179.727 86.4608 179.472 -0.415016 -8.40762 -0.0304995 -0.848571 -16.8148 -0.12541 -0.848574 -16.8149 -0.125411 -8.03392e-005 -0.0506574 -0.187093 0.201077 -0.00041518 -0.239551 -8.00266 -0.194418 -12.5027 57.5438 -46.7981 23.2326 64.5371 -71.7957 24.2029 -6.88343 1.25877 -0.138014 1.01858e-005 -4.32263e-006 -3.05676e-007 -9.93129e-032 1.59028e-015 3.57812e-015 -7.95139e-016 1.19271e-015 2.23633e-016 1.01858e-005 -4.32263e-006 -3.05676e-007 -0.0128031 0.00233367 8.8302e-005 -7.95139e-016 9.93923e-016 -5.7896e-015 1.01858e-005 -4.32263e-006 -3.05676e-007 -0.016048 0.00300281 0.000850796 7.95139e-016 -1.19271e-015 -1.01877e-015 1.01858e-005 -4.32263e-006 -3.05676e-007 -0.0126457 0.00313934 0.00283721 2.29316e-032 -3.97569e-016 3.3048e-015 1.01858e-005 -4.32263e-006 -3.05676e-007 -9.93129e-032 1.59028e-015 3.57812e-015 -7.95139e-016 1.19271e-015 2.23633e-016 7.13352 -0.0287998 7.03348 -54.2715 -49.9475 -19.4391 -68.0735 -70.6158 -28.7771 15.8837 10.7719 -0.605926 3.03456e-032 -7.95139e-016 2.18663e-015 3.31043e-032 -7.95139e-016 2.38542e-015 -3.18055e-015 -1.59028e-015 -7.95139e-015 3.03456e-032 -7.95139e-016 2.18663e-015 0.0129833 0.00231597 -8.467e-005 -4.13804e-032 7.95139e-016 2.98177e-015 3.03456e-032 -7.95139e-016 2.18663e-015 0.0163136 0.00304311 -0.000875094 -9.54166e-015 1.59028e-015 5.56597e-015 3.03456e-032 -7.95139e-016 2.18663e-015 0.0145589 0.00367221 -0.00326606 -3.18055e-015 1.59028e-015 1.98785e-015 3.03456e-032 -7.95139e-016 2.18663e-015 3.31043e-032 -7.95139e-016 2.38542e-015 -3.18055e-015 -1.59028e-015 -7.95139e-015 -0.462666 -2.22273 -3.69395 89.3861 69.1143 -102.615 -12.0884 11.5896 -3.81075 1.58662e-006 -1.05906e-006 5.47427e-007 -0.133642 -0.868866 3.59151 -120.976 62.1051 120.954 16.02 2.0683 15.6088 3.96294e-006 -3.61945e-007 -2.11003e-006 
56.3261 -0.868179 -9.25293 -179.727 86.4608 179.472 -0.415016 -8.40762 -0.0304995 -0.848571 -16.8148 -0.12541 -0.848574 -16.8149 -0.125411 0.0110717 -0.0997555 -0.37225 0.400972 0.0375699 -0.471681 -8.00266 -0.194418 -12.5027 57.5438 -46.7981 23.2327 63.6734 -72.0788 23.8257 -6.68976 1.27869 -0.344297 7.95139e-016 3.97569e-016 -3.55328e-015 7.95139e-016 0 -3.62782e-015 -7.95139e-016 3.97569e-016 -4.96962e-016 7.95139e-016 3.97569e-016 -3.55328e-015 -0.0128264 0.00232189 8.15902e-005 -7.95139e-016 -3.97569e-016 2.48481e-016 7.95139e-016 3.97569e-016 -3.55328e-015 -0.0160598 0.00299526 0.000851203 7.95139e-016 -3.97569e-016 1.19271e-015 7.95139e-016 3.97569e-016 -3.55328e-015 -0.0125859 0.00311275 0.00281991 -3.18055e-015 3.97569e-016 -5.71506e-016 7.95139e-016 3.97569e-016 -3.55328e-015 7.95139e-016 0 -3.62782e-015 -7.95139e-016 3.97569e-016 -4.96962e-016 7.13352 -0.0287996 7.03348 -54.2715 -49.9475 -19.4391 -68.0736 -70.6158 -28.7772 15.8837 10.7719 -0.605913 -2.78425e-006 -1.6341e-006 -5.01014e-006 -6.36111e-015 -7.95139e-016 -1.78906e-015 -3.18055e-015 0 -2.5842e-015 -2.78425e-006 -1.6341e-006 -5.01014e-006 0.0129851 0.00233617 -9.36283e-005 3.18055e-015 -2.38542e-015 4.96962e-015 -2.78425e-006 -1.6341e-006 -5.01014e-006 0.0163284 0.00304257 -0.000877871 -3.18055e-015 -9.85246e-008 -3.97569e-016 -2.78425e-006 -1.6341e-006 -5.01014e-006 0.0145353 0.00366513 -0.00325759 4.13804e-032 -3.97569e-015 5.96354e-016 -2.78425e-006 -1.6341e-006 -5.01014e-006 -6.36111e-015 -7.95139e-016 -1.78906e-015 -3.18055e-015 0 -2.5842e-015 -0.481328 -2.23271 -3.73109 90.7511 69.4779 -104.027 -12.0682 11.5665 -3.83381 2.37814e-006 1.41378e-006 8.37085e-007 -0.0889888 -0.875266 3.61287 -121.846 62.3505 121.802 16.0291 2.05879 15.6186 -6.09702e-007 -2.79114e-006 6.57198e-007 
56.3274 -0.860542 -9.24606 -179.727 86.4608 179.472 -0.415017 -8.40762 -0.0304996 -0.848571 -16.8148 -0.12541 -0.848574 -16.8149 -0.125411 0.0220682 -0.148875 -0.557468 0.601152 0.0747707 -0.704097 -8.00266 -0.194409 -12.5027 57.5438 -46.7982 23.2326 62.7888 -72.3604 23.4286 -6.49586 1.29797 -0.5515 2.26028e-006 -5.07743e-007 5.96523e-006 7.95139e-016 0 7.20594e-016 2.82822e-006 -6.34651e-006 -6.14633e-006 2.26028e-006 -5.07743e-007 5.96523e-006 -0.012865 0.00234279 8.77162e-005 1.99483e-006 -9.78626e-006 -5.95195e-006 2.26028e-006 -5.07743e-007 5.96523e-006 -0.0160572 0.00299889 0.000853965 6.23355e-006 -1.33294e-005 2.96605e-006 2.26028e-006 -5.07743e-007 5.96523e-006 -0.0126245 0.003133 0.00283639 1.69613e-006 -6.36771e-008 -6.02627e-008 2.26028e-006 -5.07743e-007 5.96523e-006 7.95139e-016 0 7.20594e-016 2.82822e-006 -6.34651e-006 -6.14633e-006 7.13352 -0.0287744 7.03348 -54.2715 -49.9476 -19.4392 -68.0735 -70.6158 -28.777 15.8837 10.7719 -0.605948 0 0 -5.96354e-015 -3.7527e-006 -1.06101e-006 -3.63812e-006 3.18055e-015 7.95139e-016 1.19271e-015 0 0 -5.96354e-015 0.012954 0.00231915 -8.93417e-005 -2.75869e-032 -7.95139e-016 -1.98785e-015 0 0 -5.96354e-015 0.0163259 0.00304638 -0.000878453 3.18055e-015 -1.59028e-015 1.98785e-016 0 0 -5.96354e-015 0.0145359 0.00366534 -0.00325607 -1.63671e-006 1.50456e-006 -1.60558e-007 0 0 -5.96354e-015 -3.7527e-006 -1.06101e-006 -3.63812e-006 3.18055e-015 7.95139e-016 1.19271e-015 -0.500145 -2.23575 -3.76843 92.1485 69.8299 -105.471 -12.0478 11.5434 -3.85717 2.84306e-006 -3.00171e-006 -4.36269e-006 -0.0444356 -0.896047 3.63362 -122.753 62.582 122.69 16.0381 2.04934 15.6285 -7.9223e-007 1.64481e-007 -3.08353e-007 
